<svg width="84" height="85" viewBox="0 0 84 85" fill="none" xmlns="http://www.w3.org/2000/svg">
<path d="M56 55.17C58.165 55.17 59.92 53.415 59.92 51.25C59.92 49.085 58.165 47.33 56 47.33C53.835 47.33 52.08 49.085 52.08 51.25C52.08 53.415 53.835 55.17 56 55.17Z" fill="white"/>
<path fill-rule="evenodd" clip-rule="evenodd" d="M56 58.25C53.445 58.25 48.335 59.51 48.16 62.03C49.91 64.515 52.78 66.125 56 66.125C59.22 66.125 62.09 64.515 63.84 62.03C63.665 59.51 58.555 58.25 56 58.25Z" fill="white"/>
<path fill-rule="evenodd" clip-rule="evenodd" d="M59.5 35.815V18.945L33.25 7.5L7 18.945V36.13C7 52.02 18.2 66.895 33.25 70.5C35.175 70.045 37.03 69.38 38.85 68.575C42.63 73.965 48.895 77.5 56 77.5C67.585 77.5 77 68.085 77 56.5C77 46.105 69.44 37.495 59.5 35.815ZM35 56.5C35 58.46 35.28 60.385 35.805 62.17C34.965 62.555 34.125 62.94 33.25 63.22C22.155 59.72 14 48.38 14 36.13V23.53L33.25 15.13L52.5 23.53V35.815C42.56 37.495 35 46.105 35 56.5ZM56 70.5C48.265 70.5 42 64.235 42 56.5C42 48.765 48.265 42.5 56 42.5C63.735 42.5 70 48.765 70 56.5C70 64.235 63.735 70.5 56 70.5Z" fill="white"/>
</svg>
