<svg width="30" height="31" viewBox="0 0 30 31" fill="none" xmlns="http://www.w3.org/2000/svg">
<rect width="30" height="30" transform="translate(0 0.5)" fill="#1E1E1E"/>
<path d="M15 15.5C18.4518 15.5 21.25 12.7018 21.25 9.25C21.25 5.79822 18.4518 3 15 3C11.5482 3 8.75 5.79822 8.75 9.25C8.75 12.7018 11.5482 15.5 15 15.5Z" stroke="white" stroke-width="1.66667"/>
<path d="M21.2501 18H21.6901C22.6039 18.0003 23.4862 18.3342 24.1712 18.9391C24.8562 19.544 25.2968 20.3782 25.4101 21.285L25.8988 25.19C25.9428 25.5418 25.9114 25.8989 25.8068 26.2376C25.7022 26.5764 25.5268 26.889 25.2921 27.1547C25.0575 27.4205 24.769 27.6333 24.4458 27.779C24.1226 27.9248 23.7721 28.0001 23.4176 28H6.58258C6.22805 28.0001 5.87757 27.9248 5.55438 27.779C5.2312 27.6333 4.9427 27.4205 4.70805 27.1547C4.47339 26.889 4.29794 26.5764 4.19333 26.2376C4.08873 25.8989 4.05737 25.5418 4.10133 25.19L4.58883 21.285C4.7022 20.3778 5.1431 19.5432 5.82862 18.9383C6.51414 18.3333 7.39705 17.9996 8.31133 18H8.75008" stroke="white" stroke-width="1.66667" stroke-linecap="round" stroke-linejoin="round"/>
</svg>
