<svg width="84" height="84" viewBox="0 0 84 84" fill="none" xmlns="http://www.w3.org/2000/svg">
<path d="M49.5899 48.0548L54.4899 39.5848C54.8049 39.0598 54.6649 38.3948 54.2099 38.0098L49.0299 33.9498C49.1349 33.1798 49.2049 32.3748 49.2049 31.5698C49.2049 30.7648 49.1349 29.9598 49.0299 29.1548L54.2099 25.0948C54.6649 24.7098 54.8049 24.0448 54.4899 23.5198L49.5899 15.0498C49.2749 14.5248 48.6449 14.3148 48.0849 14.5248L41.9949 16.9748C40.7349 15.9948 39.3699 15.1898 37.8649 14.5598L36.9549 8.08482C36.8499 7.52482 36.3249 7.06982 35.7299 7.06982H25.9299C25.3349 7.06982 24.8099 7.52482 24.7049 8.11982L23.7949 14.5948C22.3249 15.2248 20.9249 16.0298 19.6649 17.0098L13.5749 14.5598C13.0149 14.3498 12.3849 14.5598 12.0699 15.0848L7.16988 23.5548C6.85488 24.0798 6.99489 24.7448 7.44989 25.1298L12.6299 29.1898C12.5249 29.9598 12.4549 30.7648 12.4549 31.5698C12.4549 32.3748 12.5249 33.1798 12.6299 33.9848L7.44989 38.0448C6.99489 38.4298 6.85488 39.0948 7.16988 39.6198L12.0699 48.0898C12.3849 48.6148 13.0149 48.8248 13.5749 48.6148L19.6649 46.1648C20.9249 47.1448 22.2899 47.9498 23.7949 48.5798L24.7049 55.0548C24.8099 55.6148 25.3349 56.0698 25.9299 56.0698H35.7299C36.3249 56.0698 36.8499 55.6148 36.9549 55.0198L37.8649 48.5448C39.3349 47.9148 40.7349 47.1098 41.9949 46.1298L48.0849 48.5798C48.6449 48.7898 49.2749 48.5798 49.5899 48.0548ZM30.8299 38.5698C26.9799 38.5698 23.8299 35.4198 23.8299 31.5698C23.8299 27.7198 26.9799 24.5698 30.8299 24.5698C34.6799 24.5698 37.8299 27.7198 37.8299 31.5698C37.8299 35.4198 34.6799 38.5698 30.8299 38.5698Z" fill="white"/>
<path d="M76.7149 65.4148L73.3549 62.8248C73.4249 62.3348 73.4949 61.8098 73.4949 61.2848C73.4949 60.7598 73.4599 60.2348 73.3549 59.7448L76.6799 57.1548C76.9599 56.9098 77.0649 56.4898 76.8549 56.1398L73.7049 50.7148C73.5299 50.3648 73.1099 50.2598 72.7249 50.3648L68.8399 51.9398C68.0349 51.3098 67.1599 50.7848 66.1799 50.3998L65.5849 46.2698C65.5499 45.8498 65.1999 45.5698 64.8499 45.5698H58.5849C58.1999 45.5698 57.8499 45.8498 57.8149 46.2348L57.2199 50.3648C56.2749 50.7848 55.3649 51.2748 54.5599 51.9048L50.6749 50.3298C50.3249 50.1898 49.9049 50.3298 49.6949 50.6798L46.5449 56.1048C46.3699 56.4548 46.4049 56.8748 46.7199 57.1198L50.0449 59.7098C49.9749 60.1998 49.9399 60.7248 49.9399 61.2498C49.9399 61.7748 49.9749 62.2998 50.0449 62.7898L46.7199 65.3798C46.4399 65.6248 46.3349 66.0448 46.5449 66.3948L49.6949 71.8198C49.8699 72.1698 50.2899 72.2748 50.6749 72.1698L54.5599 70.5948C55.3649 71.2248 56.2399 71.7498 57.2199 72.1348L57.8149 76.2648C57.8849 76.6498 58.1999 76.9298 58.5849 76.9298H64.8499C65.2349 76.9298 65.5849 76.6498 65.6199 76.2648L66.2149 72.1348C67.1599 71.7148 68.0699 71.2248 68.8399 70.5948L72.7599 72.1698C73.1099 72.3098 73.5299 72.1698 73.7399 71.8198L76.8899 66.3948C77.0999 66.0798 76.9949 65.6598 76.7149 65.4148ZM61.6999 65.9748C59.1099 65.9748 56.9749 63.8748 56.9749 61.2498C56.9749 58.6248 59.0749 56.5248 61.6999 56.5248C64.3249 56.5248 66.4249 58.6248 66.4249 61.2498C66.4249 63.8748 64.2899 65.9748 61.6999 65.9748Z" fill="white"/>
</svg>
