<svg width="84" height="84" viewBox="0 0 84 84" fill="none" xmlns="http://www.w3.org/2000/svg">
<path d="M43.785 34.965C43.785 29.19 39.06 24.465 33.285 24.465C27.51 24.465 22.785 29.19 22.785 34.965C22.785 40.74 27.51 45.465 33.285 45.465C39.06 45.465 43.785 40.74 43.785 34.965ZM33.285 38.465C31.36 38.465 29.785 36.89 29.785 34.965C29.785 33.04 31.36 31.465 33.285 31.465C35.21 31.465 36.785 33.04 36.785 34.965C36.785 36.89 35.21 38.465 33.285 38.465ZM56.035 45.465C59.92 45.465 63.035 42.35 63.035 38.465C63.035 34.58 59.92 31.465 56.035 31.465C52.15 31.465 49 34.58 49.035 38.465C49.035 42.35 52.15 45.465 56.035 45.465ZM42 7C22.68 7 7 22.68 7 42C7 61.32 22.68 77 42 77C61.32 77 77 61.32 77 42C77 22.68 61.32 7 42 7ZM20.475 59.885C22.855 57.995 28.42 56 33.285 56C33.53 56 33.81 56.035 34.09 56.035C34.93 53.795 36.435 51.52 38.64 49.525C36.68 49.175 34.825 48.965 33.285 48.965C28.735 48.965 21.42 50.54 16.73 53.97C14.98 50.33 14 46.27 14 41.965C14 26.53 26.565 13.965 42 13.965C57.435 13.965 70 26.53 70 41.965C70 46.165 69.055 50.155 67.375 53.76C63.875 51.695 59.115 50.715 56.035 50.715C50.715 50.715 40.285 53.55 40.285 60.165V69.895C32.34 69.44 25.27 65.66 20.475 59.885Z" fill="white"/>
</svg>
